<svg width="29" height="28" viewBox="0 0 29 28" fill="none" xmlns="http://www.w3.org/2000/svg">
<path d="M14.1666 0C6.50882 0 0.305176 6.22617 0.305176 13.9097C0.305176 21.5933 6.50971 27.8194 14.1666 27.8194C21.8243 27.8194 28.028 21.5933 28.028 13.9097C28.028 6.22617 21.8234 0 14.1666 0ZM20.9747 9.52951L18.6997 20.2876C18.5316 21.0503 18.0791 21.2352 17.4477 20.8762L13.9823 18.3133L12.3109 19.9286C12.1267 20.1135 11.9702 20.2705 11.6125 20.2705L11.8584 16.7312L18.2803 10.9088C18.5602 10.662 18.2186 10.522 17.8492 10.7688L9.91246 15.7826L6.49183 14.7111C5.74868 14.476 5.73169 13.9654 6.64833 13.6064L20.0125 8.43468C20.6331 8.21033 21.1751 8.58634 20.9738 9.52861L20.9747 9.52951Z" fill="white"/>
</svg>
