<svg width="29" height="24" viewBox="0 0 29 24" fill="none" xmlns="http://www.w3.org/2000/svg">
<path d="M27.9961 3.18962C26.9764 3.63821 25.8848 3.94683 24.7343 4.0868C25.9082 3.38001 26.8058 2.26202 27.2337 0.930162C26.1326 1.57349 24.9145 2.03946 23.6194 2.30288C22.5867 1.19358 21.1105 0.495483 19.4722 0.495483C16.3317 0.495483 13.7864 3.04879 13.7864 6.19586C13.7864 6.64879 13.841 7.08347 13.9355 7.49555C9.21132 7.27386 5.02345 4.99615 2.22258 1.55523C1.7305 2.39329 1.45068 3.36697 1.45068 4.42672C1.45068 6.40972 2.45649 8.14844 3.97692 9.1708C3.04734 9.14385 2.17234 8.88565 1.40563 8.46054V8.52921C1.40563 11.2946 3.36355 13.6002 5.96256 14.1253C5.48867 14.2513 4.98273 14.3244 4.46899 14.3244C4.10427 14.3244 3.756 14.2887 3.4086 14.2244C4.13979 16.4882 6.23286 18.1365 8.72791 18.186C6.78818 19.7118 4.32951 20.6211 1.68026 20.6211C1.22889 20.6211 0.7784 20.5994 0.326172 20.5446C2.85328 22.1616 5.83607 23.1075 9.05798 23.1075C19.5121 23.1075 25.2247 14.4182 25.2247 6.89308C25.2247 6.65314 25.2247 6.40885 25.2065 6.16369C26.3215 5.36649 27.2866 4.3563 28.049 3.21136L27.9961 3.18962Z" fill="white"/>
</svg>
